<svg width="800" height="200" viewBox="0 0 800 200" fill="none" xmlns="http://www.w3.org/2000/svg">
<rect width="800" height="200" fill="white"/>
<path d="M90.168 157.794L142.545 0H106.743L71.162 110.942H70.72L35.581 0H0L51.051 157.794H90.168Z" transform="translate(72 20.2061)" fill="#E5E5E5"/>
<path d="M217.507 88.4H166.456C166.604 86.19 167.046 83.6853 167.782 80.886C168.666 78.0867 170.066 75.4347 171.981 72.93C174.044 70.4253 176.696 68.3627 179.937 66.742C183.326 64.974 187.525 64.09 192.534 64.09C200.195 64.09 205.868 66.1527 209.551 70.278C213.382 74.4033 216.034 80.444 217.507 88.4ZM166.456 108.29H248.889C249.479 99.45 248.742 90.9783 246.679 82.875C244.617 74.7717 241.228 67.5523 236.513 61.217C231.946 54.8817 226.052 49.8723 218.833 46.189C211.614 42.3583 203.142 40.443 193.418 40.443C184.725 40.443 176.769 41.99 169.55 45.084C162.478 48.178 156.364 52.4507 151.207 57.902C146.051 63.206 142.072 69.5413 139.273 76.908C136.474 84.2747 135.074 92.2307 135.074 100.776C135.074 109.616 136.4 117.719 139.052 125.086C141.851 132.453 145.756 138.788 150.765 144.092C155.775 149.396 161.889 153.521 169.108 156.468C176.327 159.267 184.431 160.667 193.418 160.667C206.383 160.667 217.433 157.72 226.568 151.827C235.703 145.934 242.48 136.136 246.9 122.434H219.275C218.244 125.97 215.445 129.359 210.877 132.6C206.31 135.694 200.859 137.241 194.523 137.241C185.683 137.241 178.906 134.957 174.191 130.39C169.477 125.823 166.898 118.456 166.456 108.29Z" transform="translate(72 20.2061)" fill="#E5E5E5"/>
<path d="M267.501 43.537V157.794H298.884V106.301C298.884 101.144 299.399 96.356 300.431 91.936C301.462 87.516 303.156 83.6853 305.514 80.444C308.018 77.0553 311.26 74.4033 315.238 72.488C319.216 70.5727 324.078 69.615 329.824 69.615C331.739 69.615 333.728 69.7623 335.79 70.057C337.853 70.2043 339.621 70.4253 341.095 70.72V41.548C338.59 40.8113 336.306 40.443 334.243 40.443C330.266 40.443 326.435 41.0323 322.751 42.211C319.068 43.3897 315.606 45.084 312.365 47.294C309.123 49.3567 306.25 51.935 303.746 55.029C301.241 57.9757 299.252 61.217 297.779 64.753H297.337V43.537H267.501Z" transform="translate(72 20.2061)" fill="#E5E5E5"/>
<path d="M377.708 120.666H347.873C348.168 128.327 349.862 134.736 352.956 139.893C356.197 144.902 360.249 148.954 365.111 152.048C370.12 155.142 375.793 157.352 382.128 158.678C388.463 160.004 394.946 160.667 401.576 160.667C408.059 160.667 414.394 160.004 420.582 158.678C426.917 157.499 432.516 155.363 437.378 152.269C442.24 149.175 446.144 145.123 449.091 140.114C452.185 134.957 453.732 128.622 453.732 121.108C453.732 115.804 452.701 111.384 450.638 107.848C448.575 104.165 445.85 101.144 442.461 98.787C439.072 96.2823 435.168 94.2933 430.748 92.82C426.475 91.3467 422.055 90.0943 417.488 89.063C413.068 88.0317 408.722 87.074 404.449 86.19C400.176 85.306 396.346 84.3483 392.957 83.317C389.716 82.1383 387.064 80.665 385.001 78.897C382.938 77.129 381.907 74.8453 381.907 72.046C381.907 69.6887 382.496 67.847 383.675 66.521C384.854 65.0477 386.253 63.9427 387.874 63.206C389.642 62.4693 391.557 62.0273 393.62 61.88C395.683 61.5853 397.598 61.438 399.366 61.438C404.965 61.438 409.827 62.543 413.952 64.753C418.077 66.8157 420.361 70.8673 420.803 76.908H450.638C450.049 69.836 448.207 64.0163 445.113 59.449C442.166 54.7343 438.409 50.9773 433.842 48.178C429.275 45.3787 424.044 43.3897 418.151 42.211C412.405 41.0323 406.438 40.443 400.25 40.443C394.062 40.443 388.021 41.0323 382.128 42.211C376.235 43.2423 370.931 45.1577 366.216 47.957C361.501 50.609 357.671 54.2923 354.724 59.007C351.925 63.7217 350.525 69.7623 350.525 77.129C350.525 82.1383 351.556 86.411 353.619 89.947C355.682 93.3357 358.407 96.2087 361.796 98.566C365.185 100.776 369.015 102.618 373.288 104.091C377.708 105.417 382.202 106.596 386.769 107.627C397.966 109.984 406.659 112.342 412.847 114.699C419.182 117.056 422.35 120.592 422.35 125.307C422.35 128.106 421.687 130.464 420.361 132.379C419.035 134.147 417.341 135.62 415.278 136.799C413.363 137.83 411.153 138.641 408.648 139.23C406.291 139.672 404.007 139.893 401.797 139.893C398.703 139.893 395.683 139.525 392.736 138.788C389.937 138.051 387.432 136.946 385.222 135.473C383.012 133.852 381.17 131.863 379.697 129.506C378.371 127.001 377.708 124.055 377.708 120.666Z" transform="translate(72 20.2061)" fill="#E5E5E5"/>
<path d="M470.773 78.676C471.215 71.3093 473.057 65.195 476.298 60.333C479.539 55.471 483.665 51.5667 488.674 48.62C493.684 45.6733 499.282 43.6107 505.47 42.432C511.805 41.106 518.141 40.443 524.476 40.443C530.222 40.443 536.042 40.885 541.935 41.769C547.828 42.5057 553.206 44.0527 558.068 46.41C562.93 48.7673 566.908 52.0823 570.002 56.355C573.096 60.4803 574.643 66.0053 574.643 72.93V132.379C574.643 137.536 574.938 142.471 575.527 147.186C576.117 151.901 577.148 155.437 578.621 157.794H546.797C546.208 156.026 545.692 154.258 545.25 152.49C544.956 150.575 544.734 148.659 544.587 146.744C539.578 151.901 533.685 155.51 526.907 157.573C520.13 159.636 513.205 160.667 506.133 160.667C500.682 160.667 495.599 160.004 490.884 158.678C486.169 157.352 482.044 155.289 478.508 152.49C474.972 149.691 472.173 146.155 470.11 141.882C468.195 137.609 467.237 132.526 467.237 126.633C467.237 120.15 468.342 114.846 470.552 110.721C472.909 106.448 475.856 103.06 479.392 100.555C483.075 98.0503 487.201 96.2087 491.768 95.03C496.483 93.704 501.198 92.6727 505.912 91.936C510.627 91.1993 515.268 90.61 519.835 90.168C524.402 89.726 528.454 89.063 531.99 88.179C535.526 87.295 538.326 86.0427 540.388 84.422C542.451 82.654 543.409 80.1493 543.261 76.908C543.261 73.5193 542.672 70.8673 541.493 68.952C540.462 66.8893 538.989 65.3423 537.073 64.311C535.305 63.1323 533.169 62.3957 530.664 62.101C528.307 61.659 525.728 61.438 522.929 61.438C516.741 61.438 511.879 62.764 508.343 65.416C504.807 68.068 502.744 72.488 502.155 78.676H470.773ZM543.261 101.881C541.935 103.06 540.241 104.017 538.178 104.754C536.263 105.343 534.127 105.859 531.769 106.301C529.559 106.743 527.202 107.111 524.697 107.406C522.192 107.701 519.688 108.069 517.183 108.511C514.826 108.953 512.469 109.542 510.111 110.279C507.901 111.016 505.912 112.047 504.144 113.373C502.523 114.552 501.198 116.099 500.166 118.014C499.135 119.929 498.619 122.36 498.619 125.307C498.619 128.106 499.135 130.464 500.166 132.379C501.198 134.294 502.597 135.841 504.365 137.02C506.133 138.051 508.196 138.788 510.553 139.23C512.911 139.672 515.342 139.893 517.846 139.893C524.034 139.893 528.823 138.862 532.211 136.799C535.6 134.736 538.104 132.305 539.725 129.506C541.346 126.559 542.303 123.613 542.598 120.666C543.04 117.719 543.261 115.362 543.261 113.594V101.881Z" transform="translate(72 20.2061)" fill="#E5E5E5"/>
<path d="M600.328 123.76V157.794H635.025V123.76H600.328Z" transform="translate(72 20.2061)" fill="#E5E5E5"/>
<path fill-rule="evenodd" clip-rule="evenodd" d="M0 0L28.0438 0L39.0972 22.8297L25.8442 49.7852L0 0Z" transform="translate(645.547 20)" fill="#C1C1C1"/>
<path fill-rule="evenodd" clip-rule="evenodd" d="M0 0H27.4902L54.9804 55H27.4902L0 0Z" transform="translate(728.547 20) scale(-1 1)" fill="#E5E5E5"/>
</svg>
